<svg width="144" height="91" viewBox="0 0 144 91" fill="none" xmlns="http://www.w3.org/2000/svg">
<path d="M56.9905 0.655998V63.376C56.9905 72.08 54.4732 78.864 49.4385 83.728C44.4038 88.5067 37.6625 90.896 29.2145 90.896C20.6812 90.896 13.7692 88.4213 8.4785 83.472C3.27317 78.5227 0.6705 71.6107 0.6705 62.736H18.5905C18.6758 66.576 19.5718 69.5627 21.2785 71.696C23.0705 73.8293 25.6305 74.896 28.9585 74.896C32.2012 74.896 34.6758 73.872 36.3825 71.824C38.0892 69.776 38.9425 66.96 38.9425 63.376V0.655998H56.9905ZM143.047 28.304C143.047 33.0827 141.895 37.5627 139.59 41.744C137.372 45.9253 133.831 49.296 128.967 51.856C124.188 54.416 118.129 55.696 110.791 55.696H95.8145V90H77.8945V0.655998H110.791C117.703 0.655998 123.591 1.85066 128.455 4.24C133.319 6.62933 136.945 9.91466 139.335 14.096C141.809 18.2773 143.047 23.0133 143.047 28.304ZM110.023 41.232C114.972 41.232 118.641 40.1227 121.031 37.904C123.42 35.6 124.615 32.4 124.615 28.304C124.615 19.6 119.751 15.248 110.023 15.248H95.8145V41.232H110.023Z" fill="#6B97E6"/>
</svg>
